HIERARCHY
ROOT mixamorig:Hips
{
	OFFSET -0.000008 104.274872 1.554316
	CHANNELS 6 Xposition Yposition Zposition Xrotation Yrotation Zrotation
	JOINT mixamorig:Spine
	{
		OFFSET -0.000005 10.181595 0.131519
		CHANNELS 6 Xposition Yposition Zposition Xrotation Yrotation Zrotation
		JOINT mixamorig:Spine1
		{
			OFFSET -0.000000 9.893959 -1.470707
			CHANNELS 6 Xposition Yposition Zposition Xrotation Yrotation Zrotation
			JOINT mixamorig:Spine2
			{
				OFFSET -0.000000 9.220757 -1.370641
				CHANNELS 6 Xposition Yposition Zposition Xrotation Yrotation Zrotation
				JOINT mixamorig:Neck
				{
					OFFSET 0.000001 16.740417 -2.049036
					CHANNELS 6 Xposition Yposition Zposition Xrotation Yrotation Zrotation
					JOINT mixamorig:Head
					{
						OFFSET 0.000000 9.617874 1.685006
						CHANNELS 6 Xposition Yposition Zposition Xrotation Yrotation Zrotation
						JOINT mixamorig:HeadTop_End
						{
							OFFSET 0.000002 22.037354 7.501101
							CHANNELS 6 Xposition Yposition Zposition Xrotation Yrotation Zrotation
							End Site
							{
								OFFSET 0.000168 2310.654297 -282.823242
							}
						}
					}
				}
				JOINT mixamorig:RightShoulder
				{
					OFFSET -4.569970 11.014908 -2.160885
					CHANNELS 6 Xposition Yposition Zposition Xrotation Yrotation Zrotation
					JOINT mixamorig:RightArm
					{
						OFFSET -10.592851 -0.524811 -2.232101
						CHANNELS 6 Xposition Yposition Zposition Xrotation Yrotation Zrotation
						JOINT mixamorig:RightForeArm
						{
							OFFSET -27.841511 0.000031 -0.000004
							CHANNELS 6 Xposition Yposition Zposition Xrotation Yrotation Zrotation
							JOINT mixamorig:RightHand
							{
								OFFSET -28.328831 -0.000015 0.000015
								CHANNELS 6 Xposition Yposition Zposition Xrotation Yrotation Zrotation
								JOINT mixamorig:RightHandThumb1
								{
									OFFSET -2.464806 -1.573990 2.681852
									CHANNELS 6 Xposition Yposition Zposition Xrotation Yrotation Zrotation
									JOINT mixamorig:RightHandThumb2
									{
										OFFSET -3.215179 -1.872803 1.924282
										CHANNELS 6 Xposition Yposition Zposition Xrotation Yrotation Zrotation
										JOINT mixamorig:RightHandThumb3
										{
											OFFSET -2.654831 -1.527969 1.512609
											CHANNELS 6 Xposition Yposition Zposition Xrotation Yrotation Zrotation
											JOINT mixamorig:RightHandThumb4
											{
												OFFSET -2.018814 -1.152008 1.108052
												CHANNELS 6 Xposition Yposition Zposition Xrotation Yrotation Zrotation
												End Site
												{
													OFFSET -188.809540 -114.533607 132.431396
												}
											}
										}
									}
								}
								JOINT mixamorig:RightHandIndex1
								{
									OFFSET -9.108284 -0.517868 2.259835
									CHANNELS 6 Xposition Yposition Zposition Xrotation Yrotation Zrotation
									JOINT mixamorig:RightHandIndex2
									{
										OFFSET -3.699989 0.000000 0.001215
										CHANNELS 6 Xposition Yposition Zposition Xrotation Yrotation Zrotation
										JOINT mixamorig:RightHandIndex3
										{
											OFFSET -2.850006 0.000031 -0.000522
											CHANNELS 6 Xposition Yposition Zposition Xrotation Yrotation Zrotation
											JOINT mixamorig:RightHandIndex4
											{
												OFFSET -2.772186 -0.000015 -0.000020
												CHANNELS 6 Xposition Yposition Zposition Xrotation Yrotation Zrotation
												End Site
												{
													OFFSET -277.218445 0.000000 -0.050231
												}
											}
										}
									}
								}
								JOINT mixamorig:RightHandMiddle1
								{
									OFFSET -9.532516 -0.000031 -0.000023
									CHANNELS 6 Xposition Yposition Zposition Xrotation Yrotation Zrotation
									JOINT mixamorig:RightHandMiddle2
									{
										OFFSET -3.700005 -0.000015 0.003713
										CHANNELS 6 Xposition Yposition Zposition Xrotation Yrotation Zrotation
										JOINT mixamorig:RightHandMiddle3
										{
											OFFSET -2.949974 0.000015 -0.002054
											CHANNELS 6 Xposition Yposition Zposition Xrotation Yrotation Zrotation
											JOINT mixamorig:RightHandMiddle4
											{
												OFFSET -2.946640 0.000000 -0.000156
												CHANNELS 6 Xposition Yposition Zposition Xrotation Yrotation Zrotation
												End Site
												{
													OFFSET -294.664337 0.000000 -0.113670
												}
											}
										}
									}
								}
								JOINT mixamorig:RightHandRing1
								{
									OFFSET -9.103600 -0.043076 -1.865134
									CHANNELS 6 Xposition Yposition Zposition Xrotation Yrotation Zrotation
									JOINT mixamorig:RightHandRing2
									{
										OFFSET -3.379288 0.000000 -0.001055
										CHANNELS 6 Xposition Yposition Zposition Xrotation Yrotation Zrotation
										JOINT mixamorig:RightHandRing3
										{
											OFFSET -2.889687 -0.000015 0.000379
											CHANNELS 6 Xposition Yposition Zposition Xrotation Yrotation Zrotation
											JOINT mixamorig:RightHandRing4
											{
												OFFSET -2.638809 -0.000015 0.000941
												CHANNELS 6 Xposition Yposition Zposition Xrotation Yrotation Zrotation
												End Site
												{
													OFFSET -263.880371 0.000000 0.516020
												}
											}
										}
									}
								}
								JOINT mixamorig:RightHandPinky1
								{
									OFFSET -8.076683 -0.486710 -3.806280
									CHANNELS 6 Xposition Yposition Zposition Xrotation Yrotation Zrotation
									JOINT mixamorig:RightHandPinky2
									{
										OFFSET -3.600014 -0.000015 -0.003747
										CHANNELS 6 Xposition Yposition Zposition Xrotation Yrotation Zrotation
										JOINT mixamorig:RightHandPinky3
										{
											OFFSET -2.099983 0.000000 -0.005739
											CHANNELS 6 Xposition Yposition Zposition Xrotation Yrotation Zrotation
											JOINT mixamorig:RightHandPinky4
											{
												OFFSET -2.115768 -0.000031 -0.003680
												CHANNELS 6 Xposition Yposition Zposition Xrotation Yrotation Zrotation
												End Site
												{
													OFFSET -211.577087 0.000000 -0.350686
												}
											}
										}
									}
								}
							}
						}
					}
				}
				JOINT mixamorig:LeftShoulder
				{
					OFFSET 4.570447 11.014725 -2.160855
					CHANNELS 6 Xposition Yposition Zposition Xrotation Yrotation Zrotation
					JOINT mixamorig:LeftArm
					{
						OFFSET 10.592371 -0.524597 -2.232119
						CHANNELS 6 Xposition Yposition Zposition Xrotation Yrotation Zrotation
						JOINT mixamorig:LeftForeArm
						{
							OFFSET 27.841532 -0.000031 0.000026
							CHANNELS 6 Xposition Yposition Zposition Xrotation Yrotation Zrotation
							JOINT mixamorig:LeftHand
							{
								OFFSET 28.328846 -0.000061 0.000022
								CHANNELS 6 Xposition Yposition Zposition Xrotation Yrotation Zrotation
								JOINT mixamorig:LeftHandThumb1
								{
									OFFSET 2.466141 -1.576172 2.681732
									CHANNELS 6 Xposition Yposition Zposition Xrotation Yrotation Zrotation
									JOINT mixamorig:LeftHandThumb2
									{
										OFFSET 3.217812 -1.872070 1.916482
										CHANNELS 6 Xposition Yposition Zposition Xrotation Yrotation Zrotation
										JOINT mixamorig:LeftHandThumb3
										{
											OFFSET 2.656029 -1.528778 1.514513
											CHANNELS 6 Xposition Yposition Zposition Xrotation Yrotation Zrotation
											JOINT mixamorig:LeftHandThumb4
											{
												OFFSET 2.020889 -1.154053 1.115139
												CHANNELS 6 Xposition Yposition Zposition Xrotation Yrotation Zrotation
												End Site
												{
													OFFSET 190.885437 -115.081749 130.048782
												}
											}
										}
									}
								}
								JOINT mixamorig:LeftHandIndex1
								{
									OFFSET 9.109314 -0.518021 2.259871
									CHANNELS 6 Xposition Yposition Zposition Xrotation Yrotation Zrotation
									JOINT mixamorig:LeftHandIndex2
									{
										OFFSET 3.699989 0.000000 -0.000322
										CHANNELS 6 Xposition Yposition Zposition Xrotation Yrotation Zrotation
										JOINT mixamorig:LeftHandIndex3
										{
											OFFSET 2.850006 0.000000 0.000352
											CHANNELS 6 Xposition Yposition Zposition Xrotation Yrotation Zrotation
											JOINT mixamorig:LeftHandIndex4
											{
												OFFSET 2.774864 -0.000031 -0.000027
												CHANNELS 6 Xposition Yposition Zposition Xrotation Yrotation Zrotation
												End Site
												{
													OFFSET 277.486267 0.000000 -0.009857
												}
											}
										}
									}
								}
								JOINT mixamorig:LeftHandMiddle1
								{
									OFFSET 9.533394 0.000061 0.000044
									CHANNELS 6 Xposition Yposition Zposition Xrotation Yrotation Zrotation
									JOINT mixamorig:LeftHandMiddle2
									{
										OFFSET 3.699989 -0.000015 -0.000231
										CHANNELS 6 Xposition Yposition Zposition Xrotation Yrotation Zrotation
										JOINT mixamorig:LeftHandMiddle3
										{
											OFFSET 2.949997 -0.000015 -0.000059
											CHANNELS 6 Xposition Yposition Zposition Xrotation Yrotation Zrotation
											JOINT mixamorig:LeftHandMiddle4
											{
												OFFSET 2.952896 0.000031 0.000063
												CHANNELS 6 Xposition Yposition Zposition Xrotation Yrotation Zrotation
												End Site
												{
													OFFSET 295.289337 0.000000 0.022810
												}
											}
										}
									}
								}
								JOINT mixamorig:LeftHandRing1
								{
									OFFSET 9.104523 -0.042999 -1.865074
									CHANNELS 6 Xposition Yposition Zposition Xrotation Yrotation Zrotation
									JOINT mixamorig:LeftHandRing2
									{
										OFFSET 3.150009 -0.000031 0.000043
										CHANNELS 6 Xposition Yposition Zposition Xrotation Yrotation Zrotation
										JOINT mixamorig:LeftHandRing3
										{
											OFFSET 2.949982 -0.000015 0.000040
											CHANNELS 6 Xposition Yposition Zposition Xrotation Yrotation Zrotation
											JOINT mixamorig:LeftHandRing4
											{
												OFFSET 2.644348 0.000000 0.000057
												CHANNELS 6 Xposition Yposition Zposition Xrotation Yrotation Zrotation
												End Site
												{
													OFFSET 264.434631 0.000000 0.012105
												}
											}
										}
									}
								}
								JOINT mixamorig:LeftHandPinky1
								{
									OFFSET 8.077789 -0.486847 -3.806259
									CHANNELS 6 Xposition Yposition Zposition Xrotation Yrotation Zrotation
									JOINT mixamorig:LeftHandPinky2
									{
										OFFSET 3.599953 0.000031 0.014727
										CHANNELS 6 Xposition Yposition Zposition Xrotation Yrotation Zrotation
										JOINT mixamorig:LeftHandPinky3
										{
											OFFSET 2.100021 0.000015 0.007705
											CHANNELS 6 Xposition Yposition Zposition Xrotation Yrotation Zrotation
											JOINT mixamorig:LeftHandPinky4
											{
												OFFSET 2.125504 0.000031 0.007517
												CHANNELS 6 Xposition Yposition Zposition Xrotation Yrotation Zrotation
												End Site
												{
													OFFSET 212.550781 0.000000 0.625752
												}
											}
										}
									}
								}
							}
						}
					}
				}
			}
		}
	}
	JOINT mixamorig:RightUpLeg
	{
		OFFSET -8.207787 -6.751648 -1.599560
		CHANNELS 6 Xposition Yposition Zposition Xrotation Yrotation Zrotation
		JOINT mixamorig:RightLeg
		{
			OFFSET -0.000002 -44.370117 0.345942
			CHANNELS 6 Xposition Yposition Zposition Xrotation Yrotation Zrotation
			JOINT mixamorig:RightFoot
			{
				OFFSET 0.000003 -44.423679 -3.043532
				CHANNELS 6 Xposition Yposition Zposition Xrotation Yrotation Zrotation
				JOINT mixamorig:RightToeBase
				{
					OFFSET -0.000002 -8.728671 10.710558
					CHANNELS 6 Xposition Yposition Zposition Xrotation Yrotation Zrotation
					JOINT mixamorig:RightToe_End
					{
						OFFSET -0.000001 -0.000679 9.278119
						CHANNELS 6 Xposition Yposition Zposition Xrotation Yrotation Zrotation
						End Site
						{
							OFFSET 0.000000 -0.067690 927.812134
						}
					}
				}
			}
		}
	}
	JOINT mixamorig:LeftUpLeg
	{
		OFFSET 8.207793 -6.751686 -1.599556
		CHANNELS 6 Xposition Yposition Zposition Xrotation Yrotation Zrotation
		JOINT mixamorig:LeftLeg
		{
			OFFSET -0.000004 -44.370014 0.346954
			CHANNELS 6 Xposition Yposition Zposition Xrotation Yrotation Zrotation
			JOINT mixamorig:LeftFoot
			{
				OFFSET -0.000001 -44.423672 -3.044401
				CHANNELS 6 Xposition Yposition Zposition Xrotation Yrotation Zrotation
				JOINT mixamorig:LeftToeBase
				{
					OFFSET -0.000002 -8.728669 10.710558
					CHANNELS 6 Xposition Yposition Zposition Xrotation Yrotation Zrotation
					JOINT mixamorig:LeftToe_End
					{
						OFFSET -0.000003 -0.000679 9.278133
						CHANNELS 6 Xposition Yposition Zposition Xrotation Yrotation Zrotation
						End Site
						{
							OFFSET 0.000000 -0.068021 927.813477
						}
					}
				}
			}
		}
	}
}
MOTION
Frames: 3
Frame Time: 0.033333
0.000006 104.270477 1.554256 0.000010 0.000003 -0.000113 -0.000005 10.181587 0.131522 0.000001 -0.000003 0.000084 -0.000000 9.893967 -1.470711 0.000001 0.000000 -0.000000 -0.000000 9.220802 -1.370642 0.000000 -0.000000 -0.000000 0.000001 16.740433 -2.049030 0.000000 -0.000000 -0.000000 0.000000 9.617859 1.685014 0.000000 0.000000 0.000000 0.000002 22.037384 7.501101 0.000000 -0.000000 0.000000 -4.569968 11.014880 -2.160881 0.000008 0.000001 -0.000038 -10.592871 -0.524685 -2.232002 74.624769 9.136002 -6.969088 -27.841511 -0.000003 0.000554 -49.637136 118.556976 75.780245 -28.328835 0.000005 0.000025 -0.000320 -0.000045 0.000006 -2.464418 -1.573764 2.682329 -48.170025 -163.858287 -10.661365 -3.215283 -1.872602 1.924653 152.938645 30.952566 0.876316 -2.654958 -1.527889 1.513090 143.443098 27.577083 -37.893760 -2.018842 -1.152011 1.108059 0.000000 0.000002 0.000002 -9.108383 -0.517555 2.260168 105.607278 15.495003 -20.386793 -3.700065 0.000320 0.001532 101.791388 13.159173 -16.124733 -2.850076 0.000363 -0.000228 102.099929 9.988670 -12.339321 -2.772176 -0.000003 -0.000018 0.000000 0.000000 -0.000001 -9.532579 0.000292 0.000286 105.503692 14.898673 -19.698740 -3.700087 0.000337 0.004012 104.616519 12.130816 -15.538448 -2.950047 0.000339 -0.001744 106.233586 10.226689 -13.591750 -2.946631 0.000003 -0.000159 -0.000000 0.000000 -0.000001 -9.103699 -0.042755 -1.864810 104.900832 15.740152 -20.331098 -3.379344 0.000310 -0.000751 107.317312 10.498389 -14.260424 -2.889771 0.000345 0.000694 110.476835 7.369337 -10.668791 -2.638835 0.000000 0.000942 -0.000000 -0.000000 -0.000002 -8.076764 -0.486392 -3.805977 97.360030 19.772223 -22.251450 -3.600059 0.000273 -0.003454 102.231553 10.027933 -11.969195 -2.100011 0.000323 -0.005428 102.754957 4.823560 -5.763996 -2.115774 -0.000042 -0.003683 -0.000001 -0.000000 -0.000007 4.570446 11.014691 -2.160851 -0.000018 0.000010 -0.000021 10.592360 -0.524515 -2.232306 75.050351 6.058563 -4.654829 27.841860 0.000133 -0.000178 115.386443 -60.739431 85.642458 28.328840 -0.000029 0.000022 0.000019 -0.000089 -0.000000 2.465888 -1.576116 2.681871 -52.096332 163.216427 21.407278 3.217823 -1.871755 1.916359 152.962496 -28.958301 12.365621 2.656095 -1.528619 1.514439 141.136311 -27.630070 43.659618 2.020892 -1.154081 1.115154 0.000005 0.000004 -0.000001 9.109380 -0.517837 2.259737 94.854969 -15.323625 16.648743 3.700077 0.000168 -0.000443 94.948734 -18.029626 19.647131 2.850071 0.000199 0.000220 93.674631 -15.602348 16.621076 2.774891 -0.000041 -0.000019 0.000004 0.000001 0.000001 9.533444 0.000259 -0.000100 97.414146 -12.393756 14.085109 3.700058 0.000203 -0.000354 99.964490 -13.900274 16.518280 2.950076 0.000185 -0.000179 98.538559 -17.493749 20.265361 2.952872 -0.000016 0.000061 0.000002 0.000001 0.000001 9.104589 -0.042807 -1.865221 98.077275 -12.663870 14.570815 3.150060 0.000223 -0.000074 102.695453 -13.791749 17.200102 2.950048 0.000206 -0.000060 106.532045 -14.923188 19.909769 2.644317 0.000032 0.000066 -0.000002 -0.000001 0.000000 8.077851 -0.486678 -3.806402 91.508921 -17.046340 18.098222 3.600025 0.000248 0.014573 94.744716 -11.999651 13.572847 2.100056 0.000229 0.007547 96.887511 -11.333096 13.311862 2.125502 0.000002 0.007515 -0.000000 0.000000 -0.000003 -8.207786 -6.751667 -1.599560 -0.077001 -0.000003 0.000080 -0.000002 -44.370110 0.345938 0.153719 -0.000000 -0.000000 0.000000 -44.423679 -3.043532 -0.076700 0.000000 -0.000002 -0.000006 -8.728667 10.710559 -0.000009 -0.000000 -0.000000 -0.000001 -0.000679 9.278123 0.000000 -0.000000 -0.000000 8.207792 -6.751710 -1.599556 -0.074518 -0.000003 0.000081 -0.000002 -44.370014 0.346960 0.148822 0.000002 0.000000 -0.000001 -44.423664 -3.044403 -0.074314 0.000000 -0.000002 -0.000004 -8.728671 10.710558 0.000007 -0.000000 -0.000000 0.000000 -0.000680 9.278137 -0.000000 0.000000 -0.000001 
0.000006 104.270477 1.554256 0.000010 0.000003 -0.000113 -0.000005 10.181587 0.131522 0.000001 -0.000003 0.000084 -0.000000 9.893967 -1.470711 0.000001 0.000000 -0.000000 -0.000000 9.220802 -1.370642 0.000000 -0.000000 -0.000000 0.000001 16.740433 -2.049030 0.000000 -0.000000 -0.000000 0.000000 9.617859 1.685014 0.000000 0.000000 0.000000 0.000002 22.037384 7.501101 0.000000 -0.000000 0.000000 -4.569968 11.014880 -2.160881 0.000008 0.000001 -0.000038 -10.592864 -0.524660 -2.232037 74.484060 5.136850 -3.906141 -27.841515 0.000008 0.000543 -49.332459 118.932800 75.807259 -28.328827 0.000022 0.000022 -0.000317 -0.000044 0.000006 -2.464406 -1.573740 2.682294 -50.873776 -164.650630 -17.795278 -3.215279 -1.872566 1.924658 153.380586 31.380403 3.364588 -2.654948 -1.527906 1.513072 144.748511 27.244055 -38.767297 -2.018822 -1.152011 1.108062 -0.000000 -0.000003 0.000000 -9.108377 -0.517541 2.260140 104.361131 14.385982 -18.528473 -3.700044 0.000321 0.001550 102.643086 11.459472 -14.259483 -2.850094 0.000373 -0.000242 102.236976 9.140230 -11.321082 -2.772178 -0.000001 -0.000022 -0.000003 0.000001 -0.000000 -9.532580 0.000290 0.000284 104.420075 14.192439 -18.421531 -3.700058 0.000329 0.004025 104.706909 10.864561 -13.934800 -2.950056 0.000360 -0.001758 106.130614 10.254500 -13.603339 -2.946634 0.000002 -0.000150 0.000000 -0.000000 0.000001 -9.103697 -0.042753 -1.864833 105.979770 15.678829 -20.643342 -3.379332 0.000324 -0.000739 106.177729 8.562681 -11.406276 -2.889748 0.000342 0.000700 110.154682 7.016380 -10.101609 -2.638808 -0.000027 0.000941 0.000000 -0.000000 -0.000003 -8.076767 -0.486400 -3.805962 99.427405 20.004033 -23.326085 -3.600050 0.000286 -0.003459 102.323672 8.608473 -10.239675 -2.100032 0.000325 -0.005411 105.552575 4.414365 -5.524664 -2.115793 -0.000034 -0.003675 0.000000 -0.000001 -0.000002 4.570446 11.014691 -2.160851 -0.000018 0.000010 -0.000021 10.592353 -0.524544 -2.232285 74.394434 16.078050 -12.236595 27.841867 0.000149 -0.000195 116.781878 -61.827023 88.432344 28.328817 -0.000026 0.000018 0.000020 -0.000089 -0.000001 2.465921 -1.576102 2.681892 -48.833670 165.633522 12.998449 3.217821 -1.871787 1.916378 155.569470 -29.134978 11.374092 2.656103 -1.528620 1.514464 140.672418 -27.709131 44.439461 2.020888 -1.154065 1.115144 0.000001 0.000002 0.000001 9.109397 -0.517818 2.259724 97.370712 -15.571768 17.670005 3.700059 0.000187 -0.000467 93.854777 -11.741515 12.570774 2.850051 0.000219 0.000203 92.186585 -8.595146 8.926976 2.774905 -0.000033 -0.000020 -0.000003 -0.000001 -0.000001 9.533478 0.000264 -0.000081 100.601221 -15.589647 18.715869 3.700047 0.000205 -0.000351 98.337635 -11.252027 13.004068 2.950052 0.000201 -0.000209 99.664222 -10.734427 12.705379 2.952868 -0.000014 0.000065 0.000002 0.000003 -0.000001 9.104609 -0.042785 -1.865220 102.688199 -15.372075 19.155914 3.150048 0.000229 -0.000099 103.683938 -10.640275 13.520050 2.950020 0.000229 -0.000055 107.196144 -9.579828 12.969882 2.644322 0.000027 0.000063 -0.000003 0.000002 -0.000002 8.077871 -0.486663 -3.806400 97.465686 -19.904308 23.298762 3.600025 0.000251 0.014549 96.513694 -12.758936 14.849683 2.100051 0.000210 0.007552 96.361354 -8.933107 10.498265 2.125519 0.000001 0.007526 -0.000003 -0.000002 0.000000 -8.207786 -6.751667 -1.599560 -0.077001 -0.000003 0.000080 -0.000002 -44.370110 0.345938 0.153719 -0.000000 -0.000000 0.000000 -44.423679 -3.043532 -0.076700 0.000000 -0.000002 -0.000006 -8.728667 10.710559 -0.000009 -0.000000 -0.000000 -0.000001 -0.000679 9.278123 0.000000 -0.000000 -0.000000 8.207792 -6.751710 -1.599556 -0.074518 -0.000003 0.000081 -0.000002 -44.370014 0.346960 0.148822 0.000002 0.000000 -0.000001 -44.423664 -3.044403 -0.074314 0.000000 -0.000002 -0.000004 -8.728671 10.710558 0.000007 -0.000000 -0.000000 0.000000 -0.000680 9.278137 -0.000000 0.000000 -0.000001 
0.000006 104.270477 1.554256 0.000010 0.000003 -0.000113 -0.000005 10.181587 0.131522 0.000001 -0.000003 0.000084 -0.000000 9.893967 -1.470711 0.000001 0.000000 -0.000000 -0.000000 9.220802 -1.370642 0.000000 -0.000000 -0.000000 0.000001 16.740433 -2.049030 0.000000 -0.000000 -0.000000 0.000000 9.617859 1.685014 0.000000 0.000000 0.000000 0.000002 22.037384 7.501101 0.000000 -0.000000 0.000000 -4.569968 11.014880 -2.160881 0.000008 0.000001 -0.000038 -10.592869 -0.524671 -2.232015 74.157631 7.213013 -5.454067 -27.841511 0.000014 0.000550 -49.206937 117.569959 74.153001 -28.328814 0.000020 0.000021 -0.000318 -0.000044 0.000007 -2.464404 -1.573762 2.682293 -50.561397 -163.855050 -16.907633 -3.215279 -1.872597 1.924663 153.807240 31.235288 2.099955 -2.654954 -1.527900 1.513084 144.227968 27.233440 -40.412819 -2.018827 -1.151993 1.108064 -0.000000 -0.000002 0.000005 -9.108350 -0.517557 2.260139 103.716327 14.612988 -18.604739 -3.700068 0.000304 0.001552 103.038772 11.430310 -14.323308 -2.850058 0.000365 -0.000221 103.259606 9.199353 -11.603153 -2.772156 0.000000 -0.000024 -0.000001 0.000000 -0.000000 -9.532580 0.000277 0.000302 104.069489 14.931950 -19.246756 -3.700059 0.000340 0.004021 105.551059 10.953884 -14.263548 -2.950063 0.000335 -0.001739 107.354584 10.313759 -13.987292 -2.946626 0.000001 -0.000150 0.000000 0.000000 0.000000 -9.103682 -0.042759 -1.864827 105.684569 16.671795 -21.826233 -3.379313 0.000309 -0.000751 106.773267 8.755929 -11.788697 -2.889750 0.000340 0.000725 111.294415 6.896639 -10.143104 -2.638817 -0.000028 0.000943 0.000000 -0.000000 -0.000003 -8.076760 -0.486406 -3.805958 99.392134 20.924609 -24.382969 -3.600062 0.000289 -0.003453 103.221411 9.169289 -11.106632 -2.100017 0.000330 -0.005400 106.326019 4.716752 -6.004443 -2.115784 -0.000065 -0.003683 0.000002 -0.000000 -0.000009 4.570446 11.014691 -2.160851 -0.000018 0.000010 -0.000021 10.592360 -0.524525 -2.232268 74.105415 11.574054 -8.751098 27.841864 0.000130 -0.000223 117.129603 -62.740622 89.854267 28.328829 -0.000027 0.000020 0.000018 -0.000090 0.000001 2.465991 -1.576172 2.681910 -36.227228 155.267917 -14.580120 3.217794 -1.871744 1.916360 156.468924 -30.360560 4.536340 2.656098 -1.528634 1.514452 141.180434 -27.610505 43.826746 2.020884 -1.154086 1.115147 -0.000001 0.000003 -0.000001 9.109369 -0.517815 2.259739 100.217248 -15.440346 18.409631 3.700049 0.000214 -0.000465 96.808888 -11.664226 13.146351 2.850053 0.000250 0.000196 95.290380 -8.784612 9.630441 2.774893 -0.000026 -0.000033 0.000003 0.000000 0.000001 9.533467 0.000255 -0.000081 102.880284 -15.517485 19.387774 3.700071 0.000217 -0.000372 101.179574 -11.257148 13.675374 2.950075 0.000216 -0.000202 101.807876 -10.225354 12.570450 2.952857 -0.000029 0.000063 0.000002 0.000001 0.000001 9.104586 -0.042798 -1.865211 104.367456 -15.415243 19.785801 3.150057 0.000256 -0.000089 105.752024 -11.503443 15.161625 2.950031 0.000223 -0.000053 108.164276 -9.806108 13.510319 2.644330 0.000026 0.000057 -0.000001 -0.000001 0.000001 8.077856 -0.486680 -3.806394 97.867137 -20.262009 23.868047 3.600011 0.000226 0.014598 96.879198 -14.729370 17.169508 2.100040 0.000223 0.007556 97.486218 -9.879731 11.790045 2.125502 -0.000011 0.007521 0.000001 0.000005 0.000000 -8.207786 -6.751667 -1.599560 -0.077001 -0.000003 0.000080 -0.000002 -44.370110 0.345938 0.153719 -0.000000 -0.000000 0.000000 -44.423679 -3.043532 -0.076700 0.000000 -0.000002 -0.000006 -8.728667 10.710559 -0.000009 -0.000000 -0.000000 -0.000001 -0.000679 9.278123 0.000000 -0.000000 -0.000000 8.207792 -6.751710 -1.599556 -0.074518 -0.000003 0.000081 -0.000002 -44.370014 0.346960 0.148822 0.000002 0.000000 -0.000001 -44.423664 -3.044403 -0.074314 0.000000 -0.000002 -0.000004 -8.728671 10.710558 0.000007 -0.000000 -0.000000 0.000000 -0.000680 9.278137 -0.000000 0.000000 -0.000001 
